# xmcd
#
# Track frame offsets:
#	150
#	14390
#	29802
#	46122
#	63832
#	79585
#	91400
#	108222
#	123477
#	139772
#	153142
#	170095
#	185215
#	204882
#	220140
#	233030
#	249792
#	268092
#
# Disc length: 3783 seconds
#
# Revision: 4287102823
# Processed by: cddbd v1.5.2PL0 Copyright (c) Steve Scherf et al.
# Submitted via: EZCDAudioConverter 8.3.2.1
#
DISCID=ef0ec512
DTITLE=Mats Rådberg and Rankarna - 100%. När natten kommer
DYEAR=2002
DGENRE=Country
TTITLE0=Stanna kvar när natten kommer
TTITLE1=En sång om livet
TTITLE2=Sakta kommer morgonvinden
TTITLE3=De' e' vanliga männ'skor
TTITLE4=Vi igen
TTITLE5=Allt och lite litt
TTITLE6=Dagen går mot kväll
TTITLE7=Jag undrar när vi slutade älska varann
TTITLE8=Jag vill ha dig nu
TTITLE9=Trots allt älskar jag dig
TTITLE10=Jag är bara lycklig när jag dricker
TTITLE11=Här hos mig
TTITLE12=En annan tid, en annan plats
TTITLE13=Allting som du gör
TTITLE14=Jag vill vara hos dig i natt
TTITLE15=Jag ger dig min morgon
TTITLE16=Sizzi (av Lasso)
TTITLE17=Nobody wins
EXTD=
EXTT0=
EXTT1=
EXTT2=
EXTT3=
EXTT4=
EXTT5=
EXTT6=
EXTT7=
EXTT8=
EXTT9=
EXTT10=
EXTT11=
EXTT12=
EXTT13=
EXTT14=
EXTT15=
EXTT16=
EXTT17=
PLAYORDER=
